<mxfile host="65bd71144e">
    <diagram name="Page-1" id="9f46799a-70d6-7492-0946-bef42562c5a5">
        <mxGraphModel dx="587" dy="830" grid="1" gridSize="10" guides="1" tooltips="1" connect="1" arrows="1" fold="1" page="1" pageScale="1" pageWidth="1100" pageHeight="850" background="none" math="0" shadow="0">
            <root>
                <mxCell id="0"/>
                <mxCell id="1" parent="0"/>
                <mxCell id="I4KAyqrPP_xvtK2X5vAf-3" value="Container Beginning" style="swimlane;fontStyle=0;childLayout=stackLayout;horizontal=1;startSize=26;fillColor=none;horizontalStack=0;resizeParent=1;resizeParentMax=0;resizeLast=0;collapsible=1;marginBottom=0;" parent="1" vertex="1">
                    <mxGeometry x="110" y="390" width="140" height="104" as="geometry">
                        <mxRectangle x="110" y="390" width="140" height="26" as="alternateBounds"/>
                    </mxGeometry>
                </mxCell>
                <mxCell id="I4KAyqrPP_xvtK2X5vAf-4" value="Array GoodDay" style="text;strokeColor=none;fillColor=none;align=left;verticalAlign=top;spacingLeft=4;spacingRight=4;overflow=hidden;rotatable=0;points=[[0,0.5],[1,0.5]];portConstraint=eastwest;" parent="I4KAyqrPP_xvtK2X5vAf-3" vertex="1">
                    <mxGeometry y="26" width="140" height="26" as="geometry"/>
                </mxCell>
                <mxCell id="I4KAyqrPP_xvtK2X5vAf-5" value="Array BadDay" style="text;strokeColor=none;fillColor=none;align=left;verticalAlign=top;spacingLeft=4;spacingRight=4;overflow=hidden;rotatable=0;points=[[0,0.5],[1,0.5]];portConstraint=eastwest;" parent="I4KAyqrPP_xvtK2X5vAf-3" vertex="1">
                    <mxGeometry y="52" width="140" height="26" as="geometry"/>
                </mxCell>
                <mxCell id="I4KAyqrPP_xvtK2X5vAf-6" value="Array Successful" style="text;strokeColor=none;fillColor=none;align=left;verticalAlign=top;spacingLeft=4;spacingRight=4;overflow=hidden;rotatable=0;points=[[0,0.5],[1,0.5]];portConstraint=eastwest;" parent="I4KAyqrPP_xvtK2X5vAf-3" vertex="1">
                    <mxGeometry y="78" width="140" height="26" as="geometry"/>
                </mxCell>
                <mxCell id="I4KAyqrPP_xvtK2X5vAf-9" value="" style="endArrow=classic;html=1;exitX=0.5;exitY=1;exitDx=0;exitDy=0;entryX=0.5;entryY=0;entryDx=0;entryDy=0;" parent="1" source="I4KAyqrPP_xvtK2X5vAf-8" target="I4KAyqrPP_xvtK2X5vAf-3" edge="1">
                    <mxGeometry width="50" height="50" relative="1" as="geometry">
                        <mxPoint x="520" y="250" as="sourcePoint"/>
                        <mxPoint x="570" y="200" as="targetPoint"/>
                        <Array as="points">
                            <mxPoint x="520" y="230"/>
                            <mxPoint x="180" y="230"/>
                        </Array>
                    </mxGeometry>
                </mxCell>
                <mxCell id="I4KAyqrPP_xvtK2X5vAf-10" value="Pick one of the n Arrays" style="edgeLabel;html=1;align=center;verticalAlign=middle;resizable=0;points=[];" parent="I4KAyqrPP_xvtK2X5vAf-9" vertex="1" connectable="0">
                    <mxGeometry x="-0.0462" relative="1" as="geometry">
                        <mxPoint as="offset"/>
                    </mxGeometry>
                </mxCell>
                <mxCell id="I4KAyqrPP_xvtK2X5vAf-14" value="" style="endArrow=classic;html=1;entryX=0.6;entryY=0.019;entryDx=0;entryDy=0;entryPerimeter=0;" parent="1" target="I4KAyqrPP_xvtK2X5vAf-3" edge="1">
                    <mxGeometry width="50" height="50" relative="1" as="geometry">
                        <mxPoint x="527" y="167" as="sourcePoint"/>
                        <mxPoint x="280" y="420" as="targetPoint"/>
                        <Array as="points">
                            <mxPoint x="527" y="260"/>
                            <mxPoint x="194" y="260"/>
                        </Array>
                    </mxGeometry>
                </mxCell>
                <mxCell id="I4KAyqrPP_xvtK2X5vAf-15" value="Pick random string in selected array" style="edgeLabel;html=1;align=center;verticalAlign=middle;resizable=0;points=[];" parent="I4KAyqrPP_xvtK2X5vAf-14" vertex="1" connectable="0">
                    <mxGeometry x="0.3012" y="4" relative="1" as="geometry">
                        <mxPoint x="47" y="-4" as="offset"/>
                    </mxGeometry>
                </mxCell>
                <mxCell id="I4KAyqrPP_xvtK2X5vAf-8" value="Function (array as input)&lt;br&gt;Random number w. array.Length&amp;nbsp;" style="rounded=0;whiteSpace=wrap;html=1;" parent="1" vertex="1">
                    <mxGeometry x="460" y="110" width="120" height="60" as="geometry"/>
                </mxCell>
                <mxCell id="I4KAyqrPP_xvtK2X5vAf-16" value="" style="endArrow=classic;html=1;exitX=1.014;exitY=0.154;exitDx=0;exitDy=0;exitPerimeter=0;entryX=0;entryY=0.5;entryDx=0;entryDy=0;" parent="1" source="I4KAyqrPP_xvtK2X5vAf-3" target="I4KAyqrPP_xvtK2X5vAf-26" edge="1">
                    <mxGeometry width="50" height="50" relative="1" as="geometry">
                        <mxPoint x="240" y="510" as="sourcePoint"/>
                        <mxPoint x="450" y="500" as="targetPoint"/>
                        <Array as="points">
                            <mxPoint x="270" y="406"/>
                            <mxPoint x="270" y="440"/>
                        </Array>
                    </mxGeometry>
                </mxCell>
                <mxCell id="I4KAyqrPP_xvtK2X5vAf-25" value="Provide Information if &lt;br&gt;1, 2 or 3 was picked" style="edgeLabel;html=1;align=center;verticalAlign=middle;resizable=0;points=[];" parent="I4KAyqrPP_xvtK2X5vAf-16" vertex="1" connectable="0">
                    <mxGeometry x="-0.1502" y="-1" relative="1" as="geometry">
                        <mxPoint x="41" y="-18.96" as="offset"/>
                    </mxGeometry>
                </mxCell>
                <mxCell id="I4KAyqrPP_xvtK2X5vAf-17" value="Container Mid" style="swimlane;fontStyle=0;childLayout=stackLayout;horizontal=1;startSize=26;fillColor=none;horizontalStack=0;resizeParent=1;resizeParentMax=0;resizeLast=0;collapsible=1;marginBottom=0;" parent="1" vertex="1">
                    <mxGeometry x="450" y="390" width="140" height="120" as="geometry">
                        <mxRectangle x="465" y="350" width="110" height="26" as="alternateBounds"/>
                    </mxGeometry>
                </mxCell>
                <mxCell id="I4KAyqrPP_xvtK2X5vAf-18" value="- input: Array per string with &#10;[identifier, 'string'] layout&#10;- put all fitting strings in&#10;Â new array&#10;- randomize output of &#10;new string" style="text;strokeColor=none;fillColor=none;align=left;verticalAlign=top;spacingLeft=4;spacingRight=4;overflow=hidden;rotatable=0;points=[[0,0.5],[1,0.5]];portConstraint=eastwest;" parent="I4KAyqrPP_xvtK2X5vAf-17" vertex="1">
                    <mxGeometry y="26" width="140" height="94" as="geometry"/>
                </mxCell>
                <mxCell id="I4KAyqrPP_xvtK2X5vAf-21" value="Container End" style="swimlane;fontStyle=0;childLayout=stackLayout;horizontal=1;startSize=26;fillColor=none;horizontalStack=0;resizeParent=1;resizeParentMax=0;resizeLast=0;collapsible=1;marginBottom=0;" parent="1" vertex="1" collapsed="1">
                    <mxGeometry x="650" y="390" width="110" height="26" as="geometry">
                        <mxRectangle x="750" y="350" width="140" height="104" as="alternateBounds"/>
                    </mxGeometry>
                </mxCell>
                <mxCell id="I4KAyqrPP_xvtK2X5vAf-22" value="Array GoodDay" style="text;strokeColor=none;fillColor=none;align=left;verticalAlign=top;spacingLeft=4;spacingRight=4;overflow=hidden;rotatable=0;points=[[0,0.5],[1,0.5]];portConstraint=eastwest;" parent="I4KAyqrPP_xvtK2X5vAf-21" vertex="1">
                    <mxGeometry y="26" width="110" height="26" as="geometry"/>
                </mxCell>
                <mxCell id="I4KAyqrPP_xvtK2X5vAf-23" value="Array BadDay" style="text;strokeColor=none;fillColor=none;align=left;verticalAlign=top;spacingLeft=4;spacingRight=4;overflow=hidden;rotatable=0;points=[[0,0.5],[1,0.5]];portConstraint=eastwest;" parent="I4KAyqrPP_xvtK2X5vAf-21" vertex="1">
                    <mxGeometry y="52" width="110" height="26" as="geometry"/>
                </mxCell>
                <mxCell id="I4KAyqrPP_xvtK2X5vAf-24" value="Array Successful" style="text;strokeColor=none;fillColor=none;align=left;verticalAlign=top;spacingLeft=4;spacingRight=4;overflow=hidden;rotatable=0;points=[[0,0.5],[1,0.5]];portConstraint=eastwest;" parent="I4KAyqrPP_xvtK2X5vAf-21" vertex="1">
                    <mxGeometry y="78" width="110" height="26" as="geometry"/>
                </mxCell>
                <mxCell id="I4KAyqrPP_xvtK2X5vAf-26" value="Variable to identify containerpiece" style="rounded=0;whiteSpace=wrap;html=1;" parent="1" vertex="1">
                    <mxGeometry x="290" y="425" width="120" height="40" as="geometry"/>
                </mxCell>
                <mxCell id="I4KAyqrPP_xvtK2X5vAf-27" value="" style="endArrow=classic;html=1;exitX=0.5;exitY=1;exitDx=0;exitDy=0;entryX=0.014;entryY=0.108;entryDx=0;entryDy=0;entryPerimeter=0;" parent="1" source="I4KAyqrPP_xvtK2X5vAf-26" target="I4KAyqrPP_xvtK2X5vAf-17" edge="1">
                    <mxGeometry width="50" height="50" relative="1" as="geometry">
                        <mxPoint x="520" y="440" as="sourcePoint"/>
                        <mxPoint x="420" y="490" as="targetPoint"/>
                        <Array as="points">
                            <mxPoint x="350" y="480"/>
                            <mxPoint x="440" y="480"/>
                            <mxPoint x="440" y="403"/>
                        </Array>
                    </mxGeometry>
                </mxCell>
                <mxCell id="I4KAyqrPP_xvtK2X5vAf-28" value="Select string randomly based&lt;br&gt;on first containerpiece&lt;br&gt;(checking identifier)" style="edgeLabel;html=1;align=center;verticalAlign=middle;resizable=0;points=[];" parent="I4KAyqrPP_xvtK2X5vAf-27" vertex="1" connectable="0">
                    <mxGeometry x="-0.4333" y="-1" relative="1" as="geometry">
                        <mxPoint x="-30" y="19" as="offset"/>
                    </mxGeometry>
                </mxCell>
                <mxCell id="I4KAyqrPP_xvtK2X5vAf-30" value="" style="endArrow=classic;html=1;exitX=0.75;exitY=1;exitDx=0;exitDy=0;entryX=0.5;entryY=0;entryDx=0;entryDy=0;" parent="1" source="I4KAyqrPP_xvtK2X5vAf-8" target="I4KAyqrPP_xvtK2X5vAf-21" edge="1">
                    <mxGeometry width="50" height="50" relative="1" as="geometry">
                        <mxPoint x="620" y="200" as="sourcePoint"/>
                        <mxPoint x="670" y="150" as="targetPoint"/>
                        <Array as="points">
                            <mxPoint x="550" y="210"/>
                            <mxPoint x="705" y="210"/>
                        </Array>
                    </mxGeometry>
                </mxCell>
                <mxCell id="I4KAyqrPP_xvtK2X5vAf-31" value="" style="endArrow=classic;html=1;entryX=0.5;entryY=0;entryDx=0;entryDy=0;" parent="1" target="I4KAyqrPP_xvtK2X5vAf-17" edge="1">
                    <mxGeometry width="50" height="50" relative="1" as="geometry">
                        <mxPoint x="540" y="170" as="sourcePoint"/>
                        <mxPoint x="520" y="340" as="targetPoint"/>
                        <Array as="points">
                            <mxPoint x="540" y="370"/>
                            <mxPoint x="520" y="370"/>
                        </Array>
                    </mxGeometry>
                </mxCell>
                <mxCell id="I4KAyqrPP_xvtK2X5vAf-33" value="" style="endArrow=classic;html=1;exitX=0.464;exitY=1.077;exitDx=0;exitDy=0;exitPerimeter=0;" parent="1" source="I4KAyqrPP_xvtK2X5vAf-6" edge="1">
                    <mxGeometry width="50" height="50" relative="1" as="geometry">
                        <mxPoint x="420" y="580" as="sourcePoint"/>
                        <mxPoint x="520" y="600" as="targetPoint"/>
                        <Array as="points">
                            <mxPoint x="175" y="540"/>
                            <mxPoint x="520" y="540"/>
                        </Array>
                    </mxGeometry>
                </mxCell>
                <mxCell id="I4KAyqrPP_xvtK2X5vAf-34" value="" style="endArrow=none;html=1;entryX=0.5;entryY=1;entryDx=0;entryDy=0;" parent="1" target="I4KAyqrPP_xvtK2X5vAf-21" edge="1">
                    <mxGeometry width="50" height="50" relative="1" as="geometry">
                        <mxPoint x="520" y="540" as="sourcePoint"/>
                        <mxPoint x="700" y="460" as="targetPoint"/>
                        <Array as="points">
                            <mxPoint x="705" y="540"/>
                        </Array>
                    </mxGeometry>
                </mxCell>
                <mxCell id="I4KAyqrPP_xvtK2X5vAf-35" value="" style="endArrow=none;html=1;exitX=0.5;exitY=1.021;exitDx=0;exitDy=0;exitPerimeter=0;" parent="1" source="I4KAyqrPP_xvtK2X5vAf-18" edge="1">
                    <mxGeometry width="50" height="50" relative="1" as="geometry">
                        <mxPoint x="520" y="420" as="sourcePoint"/>
                        <mxPoint x="520" y="560" as="targetPoint"/>
                    </mxGeometry>
                </mxCell>
                <mxCell id="I4KAyqrPP_xvtK2X5vAf-37" value="Function to put together and return the three quotes" style="rounded=0;whiteSpace=wrap;html=1;" parent="1" vertex="1">
                    <mxGeometry x="460" y="600" width="120" height="50" as="geometry"/>
                </mxCell>
            </root>
        </mxGraphModel>
    </diagram>
</mxfile>